<svg width="200" height="68" viewBox="0 0 200 68" fill="none" xmlns="http://www.w3.org/2000/svg">
<path d="M17.8281 30.9676V1.25879H33.7351V5.75125H22.5692V13.867H32.3983V18.3594H22.5692V26.4324H33.7351V30.9676H17.8281Z" fill="#BA6740"/>
<path d="M47.745 30.9676L40.8481 13.867V30.9676H36.3232V1.25879H40.8511L47.748 18.6614V1.25879H52.2302V30.9676H47.745Z" fill="#BA6740"/>
<path d="M66.2796 30.9676L59.3827 13.867V30.9676H54.8579V1.25879H59.3827L66.2796 18.6614V1.25879H70.7618V30.9676H66.2796Z" fill="#BA6740"/>
<path d="M73.4355 30.9676V1.25879H89.3425V5.75125H78.1766V13.867H88.0058V18.3594H78.1766V26.4324H89.3425V30.9676H73.4355Z" fill="#BA6740"/>
<path d="M103.352 30.9676L96.4555 13.867V30.9676H91.9307V1.25879H96.4555L103.352 18.6614V1.25879H107.838V30.9676H103.352Z" fill="#BA6740"/>
<path d="M121.887 18.3596H118.44V13.9555H126.415V22.7636C126.415 27.8996 123.787 31.5289 118.44 31.5289C112.061 31.5289 110.523 26.7772 110.523 22.7636V9.45088C110.523 4.3149 113.112 0.685547 118.44 0.685547C125.121 0.685547 126.415 5.39455 126.415 9.45088V9.96936H121.887V9.45088C121.887 8.15774 121.845 5.04687 118.437 5.04687C115.03 5.04687 114.993 8.16994 114.993 9.45088V22.7514C114.993 24.0018 115.036 27.1127 118.44 27.1127C121.845 27.1127 121.887 24.014 121.887 22.7636V18.3596Z" fill="#BA6740"/>
<path d="M140.382 30.9676L139.521 25.1362H133.571L132.709 30.9676H128.184L132.849 1.25879H140.264L144.919 30.9676H140.382ZM134.262 20.903H138.829L136.546 5.61706L134.262 20.903Z" fill="#BA6740"/>
<path d="M62.833 37.0979C68.923 37.0979 71.4533 41.4165 71.4533 45.4759C71.4533 51.475 68.1039 55.0159 63.0918 55.0159H60.0286V66.8037H55.5464V37.0979H62.833ZM60.0286 50.3526H62.5742C66.8372 50.3526 66.9255 46.8575 66.9255 45.604C66.9255 44.567 66.4535 41.4592 62.833 41.4592H60.0286V50.3526Z" fill="#BA6740"/>
<path d="M85.3476 53.674L89.3061 66.7884H84.4707L80.8928 54.8024C79.7297 54.7567 78.7827 54.8024 77.9209 54.8024V66.8037H73.3931V37.0979H80.6797C86.7697 37.0979 89.3 41.3311 89.3 45.604C89.3061 49.4468 87.878 52.2527 85.3476 53.674ZM80.4361 50.3496C84.5742 50.3496 84.833 47.0679 84.833 45.6863C84.833 44.4359 84.2728 41.4562 80.6949 41.4562H77.9362V50.3496H80.4361Z" fill="#BA6740"/>
<path d="M107.49 45.3022V58.5996C107.49 63.696 104.863 67.365 99.5156 67.365C94.1686 67.365 91.5986 63.7051 91.5986 58.5996V45.3022C91.5986 40.1632 94.1869 36.5369 99.5156 36.5369C104.844 36.5369 107.49 40.2943 107.49 45.3022ZM102.966 45.3022C102.966 44.0487 102.923 40.9836 99.5156 40.9836C96.1661 40.9836 96.0687 44.0487 96.0687 45.3022V58.5996C96.0687 59.8531 96.1539 62.9183 99.5156 62.9183C102.923 62.9183 102.966 59.8531 102.966 58.5996V45.3022Z" fill="#BA6740"/>
<path d="M121.543 54.1956H118.096V49.7916H126.071V58.5996C126.071 63.7387 123.44 67.365 118.096 67.365C111.717 67.365 110.179 62.6163 110.179 58.5996V45.3022C110.179 40.1632 112.764 36.5369 118.096 36.5369C124.777 36.5369 126.071 41.2428 126.071 45.3022V45.8207H121.543V45.3022C121.543 44.006 121.5 40.8982 118.096 40.8982C114.692 40.8982 114.646 44.006 114.646 45.3022V58.5996C114.646 59.8531 114.689 62.961 118.096 62.961C121.503 62.961 121.543 59.8531 121.543 58.5996V54.1956Z" fill="#BA6740"/>
<path d="M140.599 53.674L144.557 66.7884H139.737L136.159 54.8024C134.993 54.7567 134.046 54.8024 133.184 54.8024V66.8037H128.656V37.0979H135.943C142.033 37.0979 144.563 41.3311 144.563 45.604C144.563 49.4468 143.141 52.2527 140.599 53.674ZM135.684 50.3496C139.822 50.3496 140.081 47.0679 140.081 45.6863C140.081 44.4359 139.521 41.4562 135.943 41.4562H133.184V50.3496H135.684Z" fill="#BA6740"/>
<path d="M147.161 66.8037V37.0979H163.068V41.5873H151.893V49.7091H161.722V54.1985H151.893V62.2746H163.058V66.8067L147.161 66.8037Z" fill="#BA6740"/>
<path d="M169.912 58.5996C169.912 60.027 170.171 62.961 173.49 62.961C176.721 62.961 177.068 59.8958 177.068 58.8589C177.068 57.6389 176.593 55.318 173.359 53.9364C168.229 51.649 165.558 50.3528 165.558 44.8691C165.558 39.6843 168.101 36.5369 173.49 36.5369C179.912 36.5369 181.465 41.2428 181.465 45.3022V46.3544H177.068V45.3175C177.068 44.0213 176.721 40.9134 173.49 40.9134C169.696 40.9134 169.912 44.2683 169.912 45.1833C169.912 46.6075 170.686 48.2057 173.92 49.4531C177.714 50.978 181.465 52.8079 181.465 58.865C181.465 63.9613 178.834 67.3711 173.49 67.3711C167.096 67.3711 165.558 62.6224 165.558 58.6057V55.931H169.912V58.5996Z" fill="#BA6740"/>
<path d="M188.447 58.5996C188.447 60.027 188.706 62.961 192.025 62.961C195.259 62.961 195.603 59.8958 195.603 58.8589C195.603 57.6389 195.128 55.318 191.897 53.9364C186.766 51.649 184.093 50.3528 184.093 44.8691C184.093 39.6843 186.635 36.5369 192.025 36.5369C198.45 36.5369 200 41.2428 200 45.3022V46.3544H195.603V45.3175C195.603 44.0213 195.259 40.9134 192.025 40.9134C188.231 40.9134 188.447 44.2683 188.447 45.1833C188.447 46.6075 189.224 48.2057 192.457 49.4531C196.251 50.978 200 52.8079 200 58.865C200 63.9613 197.372 67.3711 192.025 67.3711C185.63 67.3711 184.093 62.6224 184.093 58.6057V55.931H188.447V58.5996Z" fill="#BA6740"/>
<path d="M10.2757 18.3791V30.9664H5.56589V18.3791L0 1.30688H4.66748L10.2757 18.3791Z" fill="#BA6740"/>
<path d="M8.40723 1.30688L11.9103 12.0497L15.4134 1.30688H8.40723Z" fill="#BA6740"/>
</svg>
