<svg width="200" height="68" viewBox="0 0 200 68" fill="none" xmlns="http://www.w3.org/2000/svg">
<path d="M17.8281 30.8794V0.584961H33.7351V5.16598H22.5692V13.4417H32.3983V18.0227H22.5692V26.2548H33.7351V30.8794H17.8281Z" fill="#BA6740"/>
<path d="M47.7459 30.8794L40.8491 13.4417V30.8794H36.3242V0.584961H40.8521L47.749 18.3306V0.584961H52.2312V30.8794H47.7459Z" fill="#BA6740"/>
<path d="M66.2791 30.8794L59.3823 13.4417V30.8794H54.8574V0.584961H59.3823L66.2791 18.3306V0.584961H70.7613V30.8794H66.2791Z" fill="#BA6740"/>
<path d="M73.4355 30.8794V0.584961H89.3425V5.16598H78.1766V13.4417H88.0058V18.0227H78.1766V26.2548H89.3425V30.8794H73.4355Z" fill="#BA6740"/>
<path d="M103.353 30.8794L96.4565 13.4417V30.8794H91.9316V0.584961H96.4565L103.353 18.3306V0.584961H107.839V30.8794H103.353Z" fill="#BA6740"/>
<path d="M121.887 18.0224H118.44V13.5316H126.415V22.5132C126.415 27.7505 123.787 31.4514 118.44 31.4514C112.061 31.4514 110.523 26.606 110.523 22.5132V8.93812C110.523 3.70089 113.112 0 118.44 0C125.121 0 126.415 4.80183 126.415 8.93812V9.46682H121.887V8.93812C121.887 7.61948 121.845 4.44729 118.437 4.44729C115.03 4.44729 114.993 7.63192 114.993 8.93812V22.5008C114.993 23.7759 115.036 26.9481 118.44 26.9481C121.845 26.9481 121.887 23.7883 121.887 22.5132V18.0224Z" fill="#BA6740"/>
<path d="M140.382 30.8794L139.52 24.9331H133.57L132.708 30.8794H128.184L132.848 0.584961H140.263L144.919 30.8794H140.382ZM134.261 20.6164H138.829L136.545 5.02914L134.261 20.6164Z" fill="#BA6740"/>
<path d="M62.8335 37.1299C68.9235 37.1299 71.4538 41.5336 71.4538 45.673C71.4538 51.7904 68.1044 55.4011 63.0923 55.4011H60.0291V67.4212H55.5469V37.1299H62.8335ZM60.0291 50.6459H62.5747C66.8377 50.6459 66.926 47.0819 66.926 45.8037C66.926 44.7463 66.454 41.5772 62.8335 41.5772H60.0291V50.6459Z" fill="#BA6740"/>
<path d="M85.3472 54.0327L89.3056 67.4057H84.4702L80.8924 55.1834C79.7292 55.1367 78.7822 55.1834 77.9205 55.1834V67.4212H73.3926V37.1299H80.6792C86.7692 37.1299 89.2995 41.4466 89.2995 45.8037C89.3056 49.7222 87.8775 52.5834 85.3472 54.0327ZM80.4356 50.6428C84.5737 50.6428 84.8326 47.2964 84.8326 45.8876C84.8326 44.6125 84.2723 41.5741 80.6944 41.5741H77.9357V50.6428H80.4356Z" fill="#BA6740"/>
<path d="M107.491 45.4967V59.0563C107.491 64.2531 104.864 67.9944 99.5166 67.9944C94.1696 67.9944 91.5996 64.2624 91.5996 59.0563V45.4967C91.5996 40.2564 94.1878 36.5586 99.5166 36.5586C104.845 36.5586 107.491 40.3901 107.491 45.4967ZM102.967 45.4967C102.967 44.2185 102.924 41.093 99.5166 41.093C96.1671 41.093 96.0696 44.2185 96.0696 45.4967V59.0563C96.0696 60.3345 96.1549 63.46 99.5166 63.46C102.924 63.46 102.967 60.3345 102.967 59.0563V45.4967Z" fill="#BA6740"/>
<path d="M121.544 54.5655H118.097V50.0746H126.071V59.0563C126.071 64.2966 123.441 67.9944 118.097 67.9944C111.717 67.9944 110.18 63.1521 110.18 59.0563V45.4967C110.18 40.2564 112.765 36.5586 118.097 36.5586C124.777 36.5586 126.071 41.3573 126.071 45.4967V46.0254H121.544V45.4967C121.544 44.175 121.501 41.0059 118.097 41.0059C114.692 41.0059 114.647 44.175 114.647 45.4967V59.0563C114.647 60.3345 114.689 63.5036 118.097 63.5036C121.504 63.5036 121.544 60.3345 121.544 59.0563V54.5655Z" fill="#BA6740"/>
<path d="M140.599 54.0327L144.557 67.4057H139.737L136.159 55.1834C134.993 55.1367 134.046 55.1834 133.184 55.1834V67.4212H128.656V37.1299H135.943C142.033 37.1299 144.563 41.4466 144.563 45.8037C144.563 49.7222 143.141 52.5834 140.599 54.0327ZM135.684 50.6428C139.822 50.6428 140.081 47.2964 140.081 45.8876C140.081 44.6125 139.521 41.5741 135.943 41.5741H133.184V50.6428H135.684Z" fill="#BA6740"/>
<path d="M147.16 67.4212V37.1299H163.067V41.7078H151.892V49.9897H161.721V54.5676H151.892V62.8029H163.058V67.4243L147.16 67.4212Z" fill="#BA6740"/>
<path d="M169.913 59.0563C169.913 60.5118 170.172 63.5036 173.491 63.5036C176.721 63.5036 177.069 60.378 177.069 59.3206C177.069 58.0766 176.594 55.7099 173.36 54.3011C168.229 51.9686 165.559 50.6469 165.559 45.0551C165.559 39.7681 168.101 36.5586 173.491 36.5586C179.913 36.5586 181.466 41.3573 181.466 45.4967V46.5697H177.069V45.5123C177.069 44.1905 176.721 41.0214 173.491 41.0214C169.697 41.0214 169.913 44.4424 169.913 45.3754C169.913 46.8278 170.686 48.4574 173.92 49.7294C177.714 51.2844 181.466 53.1504 181.466 59.3269C181.466 64.5237 178.835 68.0006 173.491 68.0006C167.096 68.0006 165.559 63.1584 165.559 59.0625V56.335H169.913V59.0563Z" fill="#BA6740"/>
<path d="M188.448 59.0563C188.448 60.5118 188.707 63.5036 192.026 63.5036C195.26 63.5036 195.604 60.378 195.604 59.3206C195.604 58.0766 195.129 55.7099 191.898 54.3011C186.767 51.9686 184.094 50.6469 184.094 45.0551C184.094 39.7681 186.636 36.5586 192.026 36.5586C198.451 36.5586 200.001 41.3573 200.001 45.4967V46.5697H195.604V45.5123C195.604 44.1905 195.26 41.0214 192.026 41.0214C188.232 41.0214 188.448 44.4424 188.448 45.3754C188.448 46.8278 189.225 48.4574 192.458 49.7294C196.252 51.2844 200.001 53.1504 200.001 59.3269C200.001 64.5237 197.373 68.0006 192.026 68.0006C185.631 68.0006 184.094 63.1584 184.094 59.0625V56.335H188.448V59.0563Z" fill="#BA6740"/>
<path d="M10.2757 18.0426V30.8779H5.56589V18.0426L0 0.633789H4.66748L10.2757 18.0426Z" fill="#BA6740"/>
<path d="M8.4082 0.633789L11.9113 11.5884L15.4144 0.633789H8.4082Z" fill="#BA6740"/>
</svg>
